# xmcd CD database file
#
# Track frame offsets:
#	225
#	62422
#	105140
#	142894
#	172402
#	252603
#
# Disc length: 3767 seconds
#
# Revision: 0
# Processed by: cddbd v1.5.2PL0 Copyright (c) Steve Scherf et al.
# Submitted via: CDex 1.70beta2
#
DISCID=4e0eb406
DTITLE=Kris Defoort - KD's Basement Party - Live At The Werf
DYEAR=2006
DGENRE=Jazz
TTITLE0=Sketches Of Belgium
TTITLE1=Trinkle Tinkle
TTITLE2=Anoraxia
TTITLE3=Monk's Dream
TTITLE4=New Life
TTITLE5=Happy
EXTD=YEAR: 2006
EXTT0=
EXTT1=
EXTT2=
EXTT3=
EXTT4=
EXTT5=
PLAYORDER=
